<svg width="14" height="14" viewBox="0 0 14 14" fill="none" xmlns="http://www.w3.org/2000/svg">
<path d="M13.2667 8.50004L8.5 13.2667C8.36667 13.4 8.21667 13.5 8.05 13.5667C7.88333 13.6334 7.71667 13.6667 7.55 13.6667C7.38333 13.6667 7.21667 13.6334 7.05 13.5667C6.88333 13.5 6.73333 13.4 6.6 13.2667L0.716667 7.38337C0.594445 7.26115 0.500001 7.11948 0.433334 6.95837C0.366667 6.79726 0.333334 6.62782 0.333334 6.45004V1.66671C0.333334 1.30004 0.46389 0.986152 0.725001 0.725041C0.986112 0.46393 1.3 0.333374 1.66667 0.333374H6.45C6.62778 0.333374 6.8 0.369485 6.96667 0.441707C7.13333 0.51393 7.27778 0.611152 7.4 0.733374L13.2667 6.61671C13.4 6.75004 13.4972 6.90004 13.5583 7.06671C13.6194 7.23337 13.65 7.40004 13.65 7.56671C13.65 7.73337 13.6194 7.89726 13.5583 8.05837C13.4972 8.21948 13.4 8.36671 13.2667 8.50004ZM7.55 12.3334L12.3167 7.56671L6.43333 1.66671H1.66667V6.43337L7.55 12.3334ZM3.33333 4.33337C3.61111 4.33337 3.84722 4.23615 4.04167 4.04171C4.23611 3.84726 4.33333 3.61115 4.33333 3.33337C4.33333 3.0556 4.23611 2.81948 4.04167 2.62504C3.84722 2.4306 3.61111 2.33337 3.33333 2.33337C3.05556 2.33337 2.81944 2.4306 2.625 2.62504C2.43056 2.81948 2.33333 3.0556 2.33333 3.33337C2.33333 3.61115 2.43056 3.84726 2.625 4.04171C2.81944 4.23615 3.05556 4.33337 3.33333 4.33337Z" fill="url(#paint0_linear_1_519)"/>
<defs>
<linearGradient id="paint0_linear_1_519" x1="2.42595" y1="1.76195" x2="11.0963" y2="14.0374" gradientUnits="userSpaceOnUse">
<stop stop-color="#FF7143"/>
<stop offset="0.494792" stop-color="#FFA827"/>
<stop offset="0.953135" stop-color="#FFC928"/>
</linearGradient>
</defs>
</svg>
