<svg width="16" height="18" viewBox="0 0 16 18" fill="none" xmlns="http://www.w3.org/2000/svg">
<path d="M3.30775 17.5C2.81058 17.5 2.385 17.323 2.031 16.969C1.677 16.615 1.5 16.1894 1.5 15.6923V3H1.25C1.0375 3 0.859417 2.92808 0.71575 2.78425C0.571917 2.64042 0.5 2.46225 0.5 2.24975C0.5 2.03708 0.571917 1.859 0.71575 1.7155C0.859417 1.57183 1.0375 1.5 1.25 1.5H5C5 1.25517 5.08625 1.0465 5.25875 0.874002C5.43108 0.701669 5.63967 0.615501 5.8845 0.615501H10.1155C10.3603 0.615501 10.5689 0.701669 10.7413 0.874002C10.9138 1.0465 11 1.25517 11 1.5H14.75C14.9625 1.5 15.1406 1.57192 15.2843 1.71575C15.4281 1.85959 15.5 2.03775 15.5 2.25025C15.5 2.46292 15.4281 2.641 15.2843 2.7845C15.1406 2.92817 14.9625 3 14.75 3H14.5V15.6923C14.5 16.1894 14.323 16.615 13.969 16.969C13.615 17.323 13.1894 17.5 12.6923 17.5H3.30775ZM13 3H3V15.6923C3 15.7821 3.02883 15.8558 3.0865 15.9135C3.14417 15.9712 3.21792 16 3.30775 16H12.6923C12.7821 16 12.8558 15.9712 12.9135 15.9135C12.9712 15.8558 13 15.7821 13 15.6923V3ZM6.15425 14C6.36675 14 6.54483 13.9282 6.6885 13.7845C6.832 13.6407 6.90375 13.4625 6.90375 13.25V5.75C6.90375 5.5375 6.83183 5.35933 6.688 5.2155C6.54433 5.07183 6.36617 5 6.1535 5C5.941 5 5.76292 5.07183 5.61925 5.2155C5.47575 5.35933 5.404 5.5375 5.404 5.75V13.25C5.404 13.4625 5.47583 13.6407 5.6195 13.7845C5.76333 13.9282 5.94158 14 6.15425 14ZM9.8465 14C10.059 14 10.2371 13.9282 10.3807 13.7845C10.5243 13.6407 10.596 13.4625 10.596 13.25V5.75C10.596 5.5375 10.5242 5.35933 10.3805 5.2155C10.2367 5.07183 10.0584 5 9.84575 5C9.63325 5 9.45517 5.07183 9.3115 5.2155C9.168 5.35933 9.09625 5.5375 9.09625 5.75V13.25C9.09625 13.4625 9.16817 13.6407 9.312 13.7845C9.45567 13.9282 9.63383 14 9.8465 14Z" fill="#FE4545"/>
</svg>
