<svg width="12" height="12" viewBox="0 0 12 12" fill="none" xmlns="http://www.w3.org/2000/svg">
<path d="M2.32923 9.85002C2.18058 9.85002 2.05521 9.8 1.95312 9.69996C1.85104 9.59992 1.8 9.47596 1.8 9.32809C1.8 9.18021 1.85031 9.05523 1.95094 8.95315C2.05156 8.85107 2.17625 8.80002 2.325 8.80002H2.5V5.30002C2.5 4.45419 2.76007 3.71044 3.28021 3.06877C3.80035 2.42711 4.47361 2.0285 5.3 1.87294V1.10002C5.3 0.90558 5.36806 0.740302 5.50417 0.604191C5.64028 0.46808 5.80555 0.400024 6 0.400024C6.19444 0.400024 6.35972 0.46808 6.49583 0.604191C6.63194 0.740302 6.7 0.90558 6.7 1.10002V1.87294C7.52639 2.0285 8.19965 2.42711 8.71979 3.06877C9.23993 3.71044 9.5 4.45419 9.5 5.30002V8.80002H9.675C9.82375 8.80002 9.94844 8.85005 10.0491 8.95009C10.1497 9.05013 10.2 9.17409 10.2 9.32196C10.2 9.46984 10.1497 9.59482 10.0492 9.6969C9.94858 9.79898 9.82395 9.85002 9.67529 9.85002H2.32923ZM5.99694 11.6C5.70731 11.6 5.46042 11.4972 5.25625 11.2916C5.05208 11.086 4.95 10.8388 4.95 10.55H7.05C7.05 10.8417 6.9469 11.0896 6.74069 11.2938C6.53448 11.4979 6.28656 11.6 5.99694 11.6ZM3.55 8.80002H8.45V5.30002C8.45 4.61947 8.21181 4.041 7.73542 3.56461C7.25903 3.08822 6.68055 2.85002 6 2.85002C5.31944 2.85002 4.74097 3.08822 4.26458 3.56461C3.78819 4.041 3.55 4.61947 3.55 5.30002V8.80002ZM0.92427 5.30002C0.778923 5.30002 0.655208 5.24417 0.553125 5.13246C0.451041 5.02075 0.409722 4.89189 0.429166 4.74586C0.497222 4.10419 0.6625 3.50627 0.925 2.95211C1.1875 2.39794 1.53346 1.89545 1.9629 1.44463C2.06819 1.34128 2.19375 1.28718 2.33958 1.28232C2.48542 1.27746 2.61181 1.3285 2.71875 1.43544C2.82569 1.54239 2.87431 1.66634 2.86458 1.80732C2.85486 1.94829 2.79546 2.07312 2.68637 2.18182C2.35932 2.51714 2.09094 2.90675 1.88123 3.35067C1.67152 3.79468 1.53556 4.26383 1.47333 4.75811C1.45778 4.9055 1.39871 5.03266 1.29615 5.13961C1.19358 5.24655 1.06962 5.30002 0.92427 5.30002ZM11.0781 5.30002C10.9302 5.30002 10.8052 5.24655 10.7031 5.13961C10.601 5.03266 10.5403 4.90627 10.5208 4.76044C10.4625 4.25489 10.3264 3.78336 10.1125 3.34586C9.89861 2.90836 9.62639 2.51461 9.29583 2.16461C9.18889 2.05766 9.13056 1.9337 9.12083 1.79273C9.11111 1.65176 9.15972 1.5278 9.26667 1.42086C9.37361 1.31391 9.50243 1.26044 9.65312 1.26044C9.80382 1.26044 9.93264 1.31391 10.0396 1.42086C10.4674 1.85836 10.8125 2.36148 11.075 2.93023C11.3375 3.49898 11.5037 4.10434 11.5737 4.7463C11.5912 4.89184 11.55 5.02051 11.4499 5.13232C11.3499 5.24412 11.2259 5.30002 11.0781 5.30002Z" fill="white"/>
</svg>
