<svg width="14" height="15" viewBox="0 0 14 15" fill="none" xmlns="http://www.w3.org/2000/svg">
<path d="M2.2 7.79999L0.533334 6.13332C0.400001 5.99999 0.333334 5.84443 0.333334 5.66666C0.333334 5.48888 0.400001 5.33332 0.533334 5.19999L2.2 3.53332C2.33333 3.39999 2.48889 3.33332 2.66667 3.33332C2.84444 3.33332 3 3.39999 3.13333 3.53332L4.8 5.19999C4.93333 5.33332 5 5.48888 5 5.66666C5 5.84443 4.93333 5.99999 4.8 6.13332L3.13333 7.79999C3 7.93332 2.84444 7.99999 2.66667 7.99999C2.48889 7.99999 2.33333 7.93332 2.2 7.79999ZM5.66667 14.6667C5.47778 14.6667 5.31944 14.6028 5.19167 14.475C5.06389 14.3472 5 14.1889 5 14V11.3333C4.44444 11.2889 3.89444 11.2278 3.35 11.15C2.80556 11.0722 2.26111 10.9722 1.71667 10.85C1.52778 10.8055 1.375 10.7 1.25833 10.5333C1.14167 10.3667 1.11111 10.1889 1.16667 9.99999C1.22222 9.8111 1.33611 9.67221 1.50833 9.58332C1.68056 9.49443 1.86111 9.47221 2.05 9.51666C2.86111 9.70555 3.68056 9.83332 4.50833 9.89999C5.33611 9.96666 6.16667 9.99999 7 9.99999C7.83333 9.99999 8.66389 9.96666 9.49167 9.89999C10.3194 9.83332 11.1389 9.70555 11.95 9.51666C12.1389 9.47221 12.3194 9.49443 12.4917 9.58332C12.6639 9.67221 12.7778 9.8111 12.8333 9.99999C12.8889 10.1889 12.8583 10.3667 12.7417 10.5333C12.625 10.7 12.4722 10.8055 12.2833 10.85C11.7389 10.9722 11.1944 11.0722 10.65 11.15C10.1056 11.2278 9.55556 11.2889 9 11.3333V14C9 14.1889 8.93611 14.3472 8.80833 14.475C8.68056 14.6028 8.52222 14.6667 8.33333 14.6667H5.66667ZM2.66667 6.39999L3.4 5.66666L2.66667 4.93332L1.93333 5.66666L2.66667 6.39999ZM7 4.66666C6.44444 4.66666 5.97222 4.47221 5.58333 4.08332C5.19444 3.69443 5 3.22221 5 2.66666C5 2.1111 5.19444 1.63888 5.58333 1.24999C5.97222 0.861101 6.44444 0.666656 7 0.666656C7.55556 0.666656 8.02778 0.861101 8.41667 1.24999C8.80556 1.63888 9 2.1111 9 2.66666C9 3.22221 8.80556 3.69443 8.41667 4.08332C8.02778 4.47221 7.55556 4.66666 7 4.66666ZM7 9.33332C6.63333 9.33332 6.31944 9.20277 6.05833 8.94166C5.79722 8.68055 5.66667 8.36666 5.66667 7.99999C5.66667 7.63332 5.79722 7.31943 6.05833 7.05832C6.31944 6.79721 6.63333 6.66666 7 6.66666C7.36667 6.66666 7.68056 6.79721 7.94167 7.05832C8.20278 7.31943 8.33333 7.63332 8.33333 7.99999C8.33333 8.36666 8.20278 8.68055 7.94167 8.94166C7.68056 9.20277 7.36667 9.33332 7 9.33332ZM7 3.33332C7.18889 3.33332 7.34722 3.26943 7.475 3.14166C7.60278 3.01388 7.66667 2.85555 7.66667 2.66666C7.66667 2.47777 7.60278 2.31943 7.475 2.19166C7.34722 2.06388 7.18889 1.99999 7 1.99999C6.81111 1.99999 6.65278 2.06388 6.525 2.19166C6.39722 2.31943 6.33333 2.47777 6.33333 2.66666C6.33333 2.85555 6.39722 3.01388 6.525 3.14166C6.65278 3.26943 6.81111 3.33332 7 3.33332ZM10.1833 7.66666L9.41667 6.33332C9.36111 6.23332 9.33333 6.12221 9.33333 5.99999C9.33333 5.87777 9.36111 5.76666 9.41667 5.66666L10.1833 4.33332C10.2389 4.22221 10.3167 4.13888 10.4167 4.08332C10.5167 4.02777 10.6278 3.99999 10.75 3.99999H12.25C12.3722 3.99999 12.4833 4.02777 12.5833 4.08332C12.6833 4.13888 12.7611 4.22221 12.8167 4.33332L13.5833 5.66666C13.6389 5.76666 13.6667 5.87777 13.6667 5.99999C13.6667 6.12221 13.6389 6.23332 13.5833 6.33332L12.8167 7.66666C12.7611 7.77777 12.6833 7.8611 12.5833 7.91666C12.4833 7.97221 12.3722 7.99999 12.25 7.99999H10.75C10.6278 7.99999 10.5167 7.97221 10.4167 7.91666C10.3167 7.8611 10.2389 7.77777 10.1833 7.66666ZM11.1333 6.66666H11.8667L12.2333 5.99999L11.8667 5.33332H11.1333L10.7667 5.99999L11.1333 6.66666Z" fill="url(#paint0_linear_1_409)"/>
<defs>
<linearGradient id="paint0_linear_1_409" x1="0.346506" y1="7.6701" x2="13.6734" y2="7.6701" gradientUnits="userSpaceOnUse">
<stop stop-color="#FF7304"/>
<stop offset="1" stop-color="#FB2A77"/>
</linearGradient>
</defs>
</svg>
