<svg width="14" height="14" viewBox="0 0 14 14" fill="none" xmlns="http://www.w3.org/2000/svg">
<g clip-path="url(#clip0_1_1050)">
<path d="M7 9.1875C8.20812 9.1875 9.1875 8.20812 9.1875 7C9.1875 5.79188 8.20812 4.8125 7 4.8125C5.79188 4.8125 4.8125 5.79188 4.8125 7C4.8125 8.20812 5.79188 9.1875 7 9.1875Z" stroke="#AAAAAA" stroke-linecap="round" stroke-linejoin="round"/>
<path d="M9.625 1.75H4.375C2.92525 1.75 1.75 2.92525 1.75 4.375V9.625C1.75 11.0747 2.92525 12.25 4.375 12.25H9.625C11.0747 12.25 12.25 11.0747 12.25 9.625V4.375C12.25 2.92525 11.0747 1.75 9.625 1.75Z" stroke="#AAAAAA" stroke-linecap="round" stroke-linejoin="round"/>
<path d="M9.84375 4.70312C10.1458 4.70312 10.3906 4.45828 10.3906 4.15625C10.3906 3.85422 10.1458 3.60938 9.84375 3.60938C9.54172 3.60938 9.29688 3.85422 9.29688 4.15625C9.29688 4.45828 9.54172 4.70312 9.84375 4.70312Z" fill="#AAAAAA"/>
</g>
<defs>
<clipPath id="clip0_1_1050">
<rect width="14" height="14" fill="white"/>
</clipPath>
</defs>
</svg>
