<svg width="14" height="12" viewBox="0 0 14 12" fill="none" xmlns="http://www.w3.org/2000/svg">
<path d="M7 9.66667C7.83333 9.66667 8.54167 9.375 9.125 8.79167C9.70833 8.20833 10 7.5 10 6.66667C10 5.83333 9.70833 5.125 9.125 4.54167C8.54167 3.95833 7.83333 3.66667 7 3.66667C6.16667 3.66667 5.45833 3.95833 4.875 4.54167C4.29167 5.125 4 5.83333 4 6.66667C4 7.5 4.29167 8.20833 4.875 8.79167C5.45833 9.375 6.16667 9.66667 7 9.66667ZM7 8.33333C6.53333 8.33333 6.13889 8.17222 5.81667 7.85C5.49444 7.52778 5.33333 7.13333 5.33333 6.66667C5.33333 6.2 5.49444 5.80556 5.81667 5.48333C6.13889 5.16111 6.53333 5 7 5C7.46667 5 7.86111 5.16111 8.18333 5.48333C8.50556 5.80556 8.66667 6.2 8.66667 6.66667C8.66667 7.13333 8.50556 7.52778 8.18333 7.85C7.86111 8.17222 7.46667 8.33333 7 8.33333ZM1.66667 12C1.3 12 0.986112 11.8694 0.725001 11.6083C0.46389 11.3472 0.333334 11.0333 0.333334 10.6667V2.66667C0.333334 2.3 0.46389 1.98611 0.725001 1.725C0.986112 1.46389 1.3 1.33333 1.66667 1.33333H3.76667L4.6 0.433333C4.72222 0.3 4.86944 0.194444 5.04167 0.116667C5.21389 0.0388889 5.39444 0 5.58333 0H8.41667C8.60556 0 8.78611 0.0388889 8.95833 0.116667C9.13056 0.194444 9.27778 0.3 9.4 0.433333L10.2333 1.33333H12.3333C12.7 1.33333 13.0139 1.46389 13.275 1.725C13.5361 1.98611 13.6667 2.3 13.6667 2.66667V10.6667C13.6667 11.0333 13.5361 11.3472 13.275 11.6083C13.0139 11.8694 12.7 12 12.3333 12H1.66667ZM1.66667 10.6667H12.3333V2.66667H9.63333L8.41667 1.33333H5.58333L4.36667 2.66667H1.66667V10.6667Z" fill="url(#paint0_linear_1_499)"/>
<defs>
<linearGradient id="paint0_linear_1_499" x1="0.685186" y1="-1.87614e-08" x2="1.54339" y2="13.0034" gradientUnits="userSpaceOnUse">
<stop stop-color="#2E22AB"/>
<stop offset="0.392635" stop-color="#983ACA"/>
<stop offset="0.777359" stop-color="#F63FA3"/>
<stop offset="1" stop-color="#FFD363"/>
</linearGradient>
</defs>
</svg>
