<svg width="16" height="16" viewBox="0 0 16 16" fill="none" xmlns="http://www.w3.org/2000/svg">
<path d="M10.3333 15.3333C9.41111 15.3333 8.55278 15.0944 7.75833 14.6166C6.96389 14.1388 6.35556 13.5 5.93333 12.7C5.84444 12.5111 5.8 12.3194 5.8 12.125C5.8 11.9305 5.85556 11.7444 5.96667 11.5666C6.07778 11.3888 6.22222 11.25 6.4 11.15C6.57778 11.05 6.77222 11 6.98333 11H11.1333C11.1444 10.8777 11.1528 10.7583 11.1583 10.6416C11.1639 10.525 11.1667 10.4055 11.1667 10.2833C11.1667 10.1833 11.1639 10.0805 11.1583 9.97496C11.1528 9.8694 11.1444 9.76663 11.1333 9.66663H10.8167C10.6278 9.66663 10.4694 9.60274 10.3417 9.47496C10.2139 9.34718 10.15 9.18885 10.15 8.99996C10.15 8.81107 10.2139 8.65274 10.3417 8.52496C10.4694 8.39718 10.6278 8.33329 10.8167 8.33329H13.4C13.2444 8.08885 13.0611 7.8694 12.85 7.67496C12.6389 7.48052 12.4056 7.31107 12.15 7.16663C11.9611 7.06663 11.8333 6.92218 11.7667 6.73329C11.7 6.5444 11.7056 6.36663 11.7833 6.19996C11.8611 6.03329 11.9778 5.91663 12.1333 5.84996C12.2889 5.78329 12.4389 5.78885 12.5833 5.86663C13.4278 6.28885 14.0972 6.90274 14.5917 7.70829C15.0861 8.51385 15.3333 9.38885 15.3333 10.3333C15.3333 11.7222 14.8472 12.9027 13.875 13.875C12.9028 14.8472 11.7222 15.3333 10.3333 15.3333ZM8.75 13.6333C8.67222 13.4111 8.60278 13.1944 8.54167 12.9833C8.48056 12.7722 8.42778 12.5555 8.38333 12.3333H7.26667C7.45556 12.6111 7.675 12.8611 7.925 13.0833C8.175 13.3055 8.45 13.4888 8.75 13.6333ZM10.3333 13.8666C10.4667 13.6222 10.5806 13.3722 10.675 13.1166C10.7694 12.8611 10.85 12.6 10.9167 12.3333H9.75C9.81667 12.6 9.9 12.8611 10 13.1166C10.1 13.3722 10.2111 13.6222 10.3333 13.8666ZM11.9167 13.6333C12.2167 13.4888 12.4917 13.3055 12.7417 13.0833C12.9917 12.8611 13.2111 12.6111 13.4 12.3333H12.2833C12.2278 12.5555 12.1722 12.7722 12.1167 12.9833C12.0611 13.1944 11.9944 13.4111 11.9167 13.6333ZM12.4667 11H13.9333C13.9556 10.8888 13.9722 10.7805 13.9833 10.675C13.9944 10.5694 14 10.4555 14 10.3333C14 10.2111 13.9944 10.0972 13.9833 9.99163C13.9722 9.88607 13.9556 9.77774 13.9333 9.66663H12.4667C12.4778 9.76663 12.4861 9.8694 12.4917 9.97496C12.4972 10.0805 12.5 10.1833 12.5 10.2833C12.5 10.4055 12.4972 10.525 12.4917 10.6416C12.4861 10.7583 12.4778 10.8777 12.4667 11ZM5.66667 10.6666C4.27778 10.6666 3.09722 10.1805 2.125 9.20829C1.15278 8.23607 0.666666 7.05552 0.666666 5.66663C0.666666 4.27774 1.15278 3.09718 2.125 2.12496C3.09722 1.15274 4.27778 0.666626 5.66667 0.666626C7.05556 0.666626 8.23611 1.15274 9.20833 2.12496C10.1806 3.09718 10.6667 4.27774 10.6667 5.66663C10.6667 7.05552 10.1806 8.23607 9.20833 9.20829C8.23611 10.1805 7.05556 10.6666 5.66667 10.6666ZM5.66667 9.33329C6.67778 9.33329 7.54167 8.97496 8.25833 8.25829C8.975 7.54163 9.33333 6.67774 9.33333 5.66663C9.33333 4.65551 8.975 3.79163 8.25833 3.07496C7.54167 2.35829 6.67778 1.99996 5.66667 1.99996C4.65556 1.99996 3.79167 2.35829 3.075 3.07496C2.35833 3.79163 2 4.65551 2 5.66663C2 6.67774 2.35833 7.54163 3.075 8.25829C3.79167 8.97496 4.65556 9.33329 5.66667 9.33329ZM4 5.33329C4.18889 5.33329 4.34722 5.2694 4.475 5.14163C4.60278 5.01385 4.66667 4.85552 4.66667 4.66663C4.66667 4.47774 4.60278 4.3194 4.475 4.19163C4.34722 4.06385 4.18889 3.99996 4 3.99996C3.81111 3.99996 3.65278 4.06385 3.525 4.19163C3.39722 4.3194 3.33333 4.47774 3.33333 4.66663C3.33333 4.85552 3.39722 5.01385 3.525 5.14163C3.65278 5.2694 3.81111 5.33329 4 5.33329ZM5.66667 8.26663C6.2 8.26663 6.675 8.11663 7.09167 7.81663C7.50833 7.51663 7.81111 7.13329 8 6.66663H3.33333C3.52222 7.13329 3.825 7.51663 4.24167 7.81663C4.65833 8.11663 5.13333 8.26663 5.66667 8.26663ZM7.33333 5.33329C7.52222 5.33329 7.68056 5.2694 7.80833 5.14163C7.93611 5.01385 8 4.85552 8 4.66663C8 4.47774 7.93611 4.3194 7.80833 4.19163C7.68056 4.06385 7.52222 3.99996 7.33333 3.99996C7.14444 3.99996 6.98611 4.06385 6.85833 4.19163C6.73056 4.3194 6.66667 4.47774 6.66667 4.66663C6.66667 4.85552 6.73056 5.01385 6.85833 5.14163C6.98611 5.2694 7.14444 5.33329 7.33333 5.33329Z" fill="url(#paint0_linear_1_539)"/>
<defs>
<linearGradient id="paint0_linear_1_539" x1="2.97143" y1="2.23805" x2="12.5048" y2="15.7523" gradientUnits="userSpaceOnUse">
<stop stop-color="#FF5622"/>
<stop offset="0.494792" stop-color="#FF8965"/>
<stop offset="0.953135" stop-color="#FF8965"/>
</linearGradient>
</defs>
</svg>
