<svg width="14" height="13" viewBox="0 0 14 13" fill="none" xmlns="http://www.w3.org/2000/svg">
<path d="M4.90001 10.2167L7.00001 8.95L9.10001 10.2333L8.55001 7.83333L10.4 6.23333L7.96668 6.01666L7.00001 3.74999L6.03334 6L3.60001 6.21666L5.45001 7.83333L4.90001 10.2167ZM2.88334 13L3.96668 8.31666L0.333344 5.16666L5.13334 4.75L7.00001 0.333328L8.86668 4.75L13.6667 5.16666L10.0333 8.31666L11.1167 13L7.00001 10.5167L2.88334 13Z" fill="#E8EAED"/>
<path d="M4.90001 10.2167L7.00001 8.95L9.10001 10.2333L8.55001 7.83333L10.4 6.23333L7.96668 6.01666L7.00001 3.74999L6.03334 6L3.60001 6.21666L5.45001 7.83333L4.90001 10.2167ZM2.88334 13L3.96668 8.31666L0.333344 5.16666L5.13334 4.75L7.00001 0.333328L8.86668 4.75L13.6667 5.16666L10.0333 8.31666L11.1167 13L7.00001 10.5167L2.88334 13Z" fill="url(#paint0_linear_1_579)"/>
<defs>
<linearGradient id="paint0_linear_1_579" x1="-4.78148" y1="9.12257" x2="16.5245" y2="9.02863" gradientUnits="userSpaceOnUse">
<stop stop-color="#FFAA04"/>
<stop offset="1" stop-color="#FB9B2A"/>
</linearGradient>
</defs>
</svg>
