<svg width="16" height="12" viewBox="0 0 16 12" fill="none" xmlns="http://www.w3.org/2000/svg">
<path d="M0.666666 9.46669C0.666666 9.08891 0.763888 8.74169 0.958333 8.42502C1.15278 8.10835 1.41111 7.86669 1.73333 7.70002C2.42222 7.35558 3.12222 7.09724 3.83333 6.92502C4.54444 6.7528 5.26667 6.66669 6 6.66669C6.73333 6.66669 7.45556 6.7528 8.16667 6.92502C8.87778 7.09724 9.57778 7.35558 10.2667 7.70002C10.5889 7.86669 10.8472 8.10835 11.0417 8.42502C11.2361 8.74169 11.3333 9.08891 11.3333 9.46669V10C11.3333 10.3667 11.2028 10.6806 10.9417 10.9417C10.6806 11.2028 10.3667 11.3334 10 11.3334H2C1.63333 11.3334 1.31944 11.2028 1.05833 10.9417C0.797222 10.6806 0.666666 10.3667 0.666666 10V9.46669ZM14 11.3334H12.3C12.4222 11.1334 12.5139 10.9195 12.575 10.6917C12.6361 10.4639 12.6667 10.2334 12.6667 10V9.33335C12.6667 8.84447 12.5306 8.37502 12.2583 7.92502C11.9861 7.47502 11.6 7.08891 11.1 6.76669C11.6667 6.83335 12.2 6.94724 12.7 7.10835C13.2 7.26946 13.6667 7.46669 14.1 7.70002C14.5 7.92224 14.8056 8.16947 15.0167 8.44169C15.2278 8.71391 15.3333 9.01113 15.3333 9.33335V10C15.3333 10.3667 15.2028 10.6806 14.9417 10.9417C14.6806 11.2028 14.3667 11.3334 14 11.3334ZM6 6.00002C5.26667 6.00002 4.63889 5.73891 4.11667 5.21669C3.59444 4.69447 3.33333 4.06669 3.33333 3.33335C3.33333 2.60002 3.59444 1.97224 4.11667 1.45002C4.63889 0.927798 5.26667 0.666687 6 0.666687C6.73333 0.666687 7.36111 0.927798 7.88333 1.45002C8.40556 1.97224 8.66667 2.60002 8.66667 3.33335C8.66667 4.06669 8.40556 4.69447 7.88333 5.21669C7.36111 5.73891 6.73333 6.00002 6 6.00002ZM12.6667 3.33335C12.6667 4.06669 12.4056 4.69447 11.8833 5.21669C11.3611 5.73891 10.7333 6.00002 10 6.00002C9.87778 6.00002 9.72222 5.98613 9.53333 5.95835C9.34444 5.93058 9.18889 5.90002 9.06667 5.86669C9.36667 5.51113 9.59722 5.11669 9.75833 4.68335C9.91944 4.25002 10 3.80002 10 3.33335C10 2.86669 9.91944 2.41669 9.75833 1.98335C9.59722 1.55002 9.36667 1.15558 9.06667 0.80002C9.22222 0.744465 9.37778 0.708354 9.53333 0.691687C9.68889 0.67502 9.84444 0.666687 10 0.666687C10.7333 0.666687 11.3611 0.927798 11.8833 1.45002C12.4056 1.97224 12.6667 2.60002 12.6667 3.33335ZM2 10H10V9.46669C10 9.34447 9.96944 9.23335 9.90833 9.13335C9.84722 9.03335 9.76667 8.95558 9.66667 8.90002C9.06667 8.60002 8.46111 8.37502 7.85 8.22502C7.23889 8.07502 6.62222 8.00002 6 8.00002C5.37778 8.00002 4.76111 8.07502 4.15 8.22502C3.53889 8.37502 2.93333 8.60002 2.33333 8.90002C2.23333 8.95558 2.15278 9.03335 2.09167 9.13335C2.03056 9.23335 2 9.34447 2 9.46669V10ZM6 4.66669C6.36667 4.66669 6.68056 4.53613 6.94167 4.27502C7.20278 4.01391 7.33333 3.70002 7.33333 3.33335C7.33333 2.96669 7.20278 2.6528 6.94167 2.39169C6.68056 2.13058 6.36667 2.00002 6 2.00002C5.63333 2.00002 5.31944 2.13058 5.05833 2.39169C4.79722 2.6528 4.66667 2.96669 4.66667 3.33335C4.66667 3.70002 4.79722 4.01391 5.05833 4.27502C5.31944 4.53613 5.63333 4.66669 6 4.66669Z" fill="url(#paint0_linear_1_474)"/>
<defs>
<linearGradient id="paint0_linear_1_474" x1="2.97143" y1="1.80954" x2="8.9496" y2="13.462" gradientUnits="userSpaceOnUse">
<stop stop-color="#5C6CC1"/>
<stop offset="0.494792" stop-color="#43A4F5"/>
<stop offset="0.953135" stop-color="#2BB5F6"/>
</linearGradient>
</defs>
</svg>
