<svg width="14" height="14" viewBox="0 0 14 14" fill="none" xmlns="http://www.w3.org/2000/svg">
<path d="M7.66658 6.73203V4.33203C7.66658 4.14314 7.6027 3.98481 7.47492 3.85703C7.34714 3.72925 7.18881 3.66536 6.99992 3.66536C6.81103 3.66536 6.6527 3.72925 6.52492 3.85703C6.39714 3.98481 6.33325 4.14314 6.33325 4.33203V6.98203C6.33325 7.07092 6.34992 7.15703 6.38325 7.24036C6.41658 7.3237 6.46659 7.3987 6.53325 7.46536L8.73325 9.66536C8.85547 9.78759 9.01103 9.8487 9.19992 9.8487C9.38881 9.8487 9.54436 9.78759 9.66658 9.66536C9.78881 9.54314 9.84992 9.38759 9.84992 9.1987C9.84992 9.00981 9.78881 8.85425 9.66658 8.73203L7.66658 6.73203ZM6.99992 13.6654C6.0777 13.6654 5.21103 13.4904 4.39992 13.1404C3.58881 12.7904 2.88325 12.3154 2.28325 11.7154C1.68325 11.1154 1.20825 10.4098 0.858252 9.5987C0.508252 8.78759 0.333252 7.92092 0.333252 6.9987C0.333252 6.07648 0.508252 5.20981 0.858252 4.3987C1.20825 3.58759 1.68325 2.88203 2.28325 2.28203C2.88325 1.68203 3.58881 1.20703 4.39992 0.857031C5.21103 0.507031 6.0777 0.332031 6.99992 0.332031C7.92214 0.332031 8.78881 0.507031 9.59992 0.857031C10.411 1.20703 11.1166 1.68203 11.7166 2.28203C12.3166 2.88203 12.7916 3.58759 13.1416 4.3987C13.4916 5.20981 13.6666 6.07648 13.6666 6.9987C13.6666 7.92092 13.4916 8.78759 13.1416 9.5987C12.7916 10.4098 12.3166 11.1154 11.7166 11.7154C11.1166 12.3154 10.411 12.7904 9.59992 13.1404C8.78881 13.4904 7.92214 13.6654 6.99992 13.6654ZM6.99992 12.332C8.4777 12.332 9.73603 11.8126 10.7749 10.7737C11.8138 9.73481 12.3333 8.47647 12.3333 6.9987C12.3333 5.52092 11.8138 4.26259 10.7749 3.2237C9.73603 2.18481 8.4777 1.66536 6.99992 1.66536C5.52214 1.66536 4.26381 2.18481 3.22492 3.2237C2.18603 4.26259 1.66659 5.52092 1.66659 6.9987C1.66659 8.47647 2.18603 9.73481 3.22492 10.7737C4.26381 11.8126 5.52214 12.332 6.99992 12.332Z" fill="url(#paint0_linear_1_1130)"/>
<defs>
<linearGradient id="paint0_linear_1_1130" x1="2.42849" y1="1.7606" x2="11.0952" y2="14.0463" gradientUnits="userSpaceOnUse">
<stop stop-color="#3F51B5"/>
<stop offset="0.494792" stop-color="#5C6CC1"/>
<stop offset="0.953135" stop-color="#7887CC"/>
</linearGradient>
</defs>
</svg>
